 <svg  version="1.0" xmlns="http://www.w3.org/2000/svg"  width="300.000000pt" height="550.000000pt" viewBox="0 0 300.000000 550.000000"  preserveAspectRatio="xMidYMid meet">  <g transform="translate(0.000000,550.000000) scale(0.100000,-0.100000)" fill="#07b5ad" stroke="none"> <path d="M1144 3645 c-78 -54 -65 -221 20 -261 71 -34 136 25 136 124 0 92 -42 152 -105 152 -17 0 -40 -7 -51 -15z m96 -57 c22 -36 27 -107 10 -138 -16 -30 -46 -43 -71 -30 -24 13 -49 67 -49 107 0 43 35 93 65 93 18 0 31 -10 45 -32z"/> <path d="M1358 3600 c-28 -28 -30 -36 -25 -78 4 -34 12 -53 32 -69 35 -31 61 -29 96 6 39 39 40 96 3 140 -33 40 -66 40 -106 1z m76 -26 c29 -29 11 -104 -24 -104 -14 0 -40 42 -40 64 0 20 27 56 41 56 4 0 15 -7 23 -16z"/> <path d="M1543 3595 c-27 -19 -44 -75 -34 -112 4 -15 19 -35 33 -46 50 -37 108 10 108 86 -1 36 -14 58 -47 75 -28 15 -34 15 -60 -3z m51 -41 c21 -20 20 -58 -1 -79 -16 -16 -18 -16 -35 5 -22 27 -22 39 -2 68 18 26 18 26 38 6z"/> <path d="M1704 3548 c-45 -21 -59 -103 -24 -138 32 -32 76 -26 100 13 25 40 25 78 3 105 -23 26 -52 33 -79 20z m51 -58 c9 -29 -4 -60 -25 -60 -10 0 -22 9 -25 20 -9 29 4 60 25 60 10 0 22 -9 25 -20z"/> <path d="M1839 3467 c-76 -38 -44 -168 34 -138 63 24 64 109 1 144 -5 3 -21 0 -35 -6z m41 -61 c0 -32 -23 -51 -39 -32 -17 20 -4 56 20 56 13 0 19 -7 19 -24z"/> <path d="M1351 3370 c-148 -32 -221 -130 -207 -281 8 -87 33 -158 107 -296 73 -136 89 -190 89 -300 0 -60 4 -83 13 -83 6 0 104 -11 217 -25 159 -19 206 -22 212 -12 11 18 85 329 104 437 9 52 17 149 18 215 1 114 0 123 -29 180 -24 49 -40 66 -84 92 -96 57 -330 96 -440 73z m184 -41 c176 -24 274 -71 307 -147 31 -68 28 -233 -7 -412 -29 -155 -78 -356 -88 -366 -4 -4 -7 83 -7 193 l0 201 40 36 40 36 0 82 0 83 -42 37 c-42 35 -42 37 -25 56 34 38 0 102 -40 76 -33 -20 -39 -41 -18 -64 10 -11 20 -29 21 -38 2 -9 21 -33 44 -52 39 -34 40 -37 40 -99 0 -61 -1 -64 -41 -100 l-41 -36 2 -202 1 -203 -26 0 -25 0 0 289 c0 253 2 290 16 295 10 4 14 16 12 38 -3 30 -6 33 -38 33 -32 0 -35 -3 -38 -33 -2 -22 2 -34 12 -38 14 -5 16 -42 16 -290 l0 -284 -25 0 -25 0 0 339 c0 292 2 340 15 345 18 7 20 47 3 64 -15 15 -51 15 -66 0 -16 -16 -15 -43 3 -58 12 -10 15 -66 17 -346 l3 -334 -22 0 -23 0 0 202 c0 172 2 204 16 219 21 24 11 65 -18 75 -16 5 -27 1 -40 -16 -22 -27 -22 -34 -3 -53 11 -12 14 -54 15 -216 1 -111 -1 -201 -4 -201 -50 0 -46 -34 -46 375 0 225 4 375 10 375 19 0 31 39 20 61 -9 15 -19 19 -43 17 -28 -3 -32 -7 -35 -36 -2 -22 2 -34 12 -38 14 -5 16 -50 16 -380 0 -367 0 -374 -20 -374 -20 0 -20 7 -20 271 l0 270 -30 26 c-34 28 -41 81 -15 103 38 31 -1 94 -44 71 -33 -18 -37 -63 -6 -75 9 -3 12 -16 8 -44 -5 -34 -1 -42 25 -64 28 -23 31 -31 34 -102 1 -42 0 -76 -3 -76 -3 0 -14 9 -24 20 -13 15 -22 17 -29 10 -8 -8 -2 -19 20 -39 27 -25 32 -36 37 -97 5 -59 4 -65 -6 -39 -6 17 -29 62 -50 100 -106 196 -142 315 -119 401 24 88 81 137 181 154 67 11 81 11 166 -1z m-79 -90 c10 -17 -13 -36 -27 -22 -12 12 -4 33 11 33 5 0 12 -5 16 -11z m-120 -90 c10 -17 -13 -36 -27 -22 -12 12 -4 33 11 33 5 0 12 -5 16 -11z m268 -20 c-8 -14 -34 -11 -34 4 0 8 3 17 7 20 9 9 34 -13 27 -24z m72 -90 c10 -17 -13 -36 -27 -22 -12 12 -4 33 11 33 5 0 12 -5 16 -11z m-141 -159 c0 -22 -29 -18 -33 3 -3 14 1 18 15 15 10 -2 18 -10 18 -18z"/> <path d="M1714 2919 c-10 -17 13 -36 27 -22 12 12 4 33 -11 33 -5 0 -12 -5 -16 -11z"/> <path d="M1427 2329 c-88 -21 -124 -56 -151 -148 -55 -187 35 -339 212 -357 132 -14 208 44 263 202 61 174 40 265 -70 293 -56 14 -212 21 -254 10z m205 -44 c34 -4 67 -14 82 -26 23 -18 26 -28 26 -79 0 -77 -50 -218 -94 -264 -83 -88 -268 -59 -322 51 -27 55 -26 172 3 235 24 53 53 75 114 87 43 9 73 8 191 -4z"/> </g> </svg> 